HIERARCHY
ROOT Hips
{
	OFFSET 0.000000 0.000000 0.000000
	CHANNELS 6 Xposition Yposition Zposition Yrotation Xrotation Zrotation
	JOINT Chest
	{
		OFFSET 0.000000 -0.009281 11.569106
		CHANNELS 3 Yrotation Xrotation Zrotation
		JOINT Chest2
		{
			OFFSET -0.000000 0.016865 9.269641
			CHANNELS 3 Yrotation Xrotation Zrotation
			JOINT Chest3
			{
				OFFSET -0.000000 0.000001 8.374491
				CHANNELS 3 Yrotation Xrotation Zrotation
				JOINT Chest4
				{
					OFFSET -0.000000 0.000001 8.374493
					CHANNELS 3 Yrotation Xrotation Zrotation
					JOINT Neck
					{
						OFFSET -0.000000 0.000002 12.152554
						CHANNELS 3 Yrotation Xrotation Zrotation
						JOINT Head
						{
							OFFSET -0.000000 0.040101 7.802319
							CHANNELS 3 Yrotation Xrotation Zrotation
							End Site
							{
								OFFSET -0.000000 0.020947 14.853096
							}
						}
					}
					JOINT RightCollar
					{
						OFFSET 2.894404 0.000001 6.791374
						CHANNELS 3 Yrotation Xrotation Zrotation
						JOINT RightShoulder
						{
							OFFSET 13.574684 0.000001 0.000000
							CHANNELS 3 Yrotation Xrotation Zrotation
							JOINT RightElbow
							{
								OFFSET 23.923903 0.000002 0.000000
								CHANNELS 3 Yrotation Xrotation Zrotation
								JOINT RightWrist
								{
									OFFSET 19.846718 0.012767 0.000000
									CHANNELS 3 Yrotation Xrotation Zrotation
									End Site
									{
										OFFSET 14.973145 0.000001 0.000000
									}
								}
							}
						}
					}
					JOINT LeftCollar
					{
						OFFSET -2.894404 0.000001 6.791374
						CHANNELS 3 Yrotation Xrotation Zrotation
						JOINT LeftShoulder
						{
							OFFSET -13.574684 -0.000001 0.000000
							CHANNELS 3 Yrotation Xrotation Zrotation
							JOINT LeftElbow
							{
								OFFSET -23.923903 -0.000002 0.000000
								CHANNELS 3 Yrotation Xrotation Zrotation
								JOINT LeftWrist
								{
									OFFSET -19.846718 0.012763 0.000000
									CHANNELS 3 Yrotation Xrotation Zrotation
									End Site
									{
										OFFSET -14.973145 -0.000001 0.000000
									}
								}
							}
						}
					}
				}
			}
		}
	}
	JOINT RightHip
	{
		OFFSET 9.469263 0.004643 0.045487
		CHANNELS 3 Yrotation Xrotation Zrotation
		JOINT RightKnee
		{
			OFFSET 0.000000 0.002661 -40.478676
			CHANNELS 3 Yrotation Xrotation Zrotation
			JOINT RightAnkle
			{
				OFFSET 0.000000 0.049106 -35.224068
				CHANNELS 3 Yrotation Xrotation Zrotation
				JOINT RightToe
				{
					OFFSET -0.000001 12.539529 -6.151390
					CHANNELS 3 Yrotation Xrotation Zrotation
					End Site
					{
						OFFSET -0.000001 5.044994 -1.291870
					}
				}
			}
		}
	}
	JOINT LeftHip
	{
		OFFSET -9.469263 0.004641 0.045487
		CHANNELS 3 Yrotation Xrotation Zrotation
		JOINT LeftKnee
		{
			OFFSET 0.000000 0.002661 -40.478676
			CHANNELS 3 Yrotation Xrotation Zrotation
			JOINT LeftAnkle
			{
				OFFSET 0.000000 0.049106 -35.224068
				CHANNELS 3 Yrotation Xrotation Zrotation
				JOINT LeftToe
				{
					OFFSET -0.000001 12.539529 -6.151390
					CHANNELS 3 Yrotation Xrotation Zrotation
					End Site
					{
						OFFSET -0.000001 5.044994 -1.291870
					}
				}
			}
		}
	}
}
MOTION
Frames: 9
Frame Time: 0.016667
10.294854 4.004639 82.837914 -9.534849 -2.081699 -104.647104 0.465105 -6.809141 4.126494 0.261195 -3.015569 1.777328 0.261195 -3.015569 1.777327 0.204630 -2.260940 1.333978 4.465517 -25.026605 3.322070 8.783577 -10.665359 7.007459 0.944673 -2.233229 0.223514 56.157108 -35.858036 65.671039 -24.135397 -45.355714 51.924614 -46.543921 23.614187 57.794165 -8.705099 -3.963334 -10.729948 -49.638577 -0.304541 -33.467401 -2.003299 -31.617468 -12.950523 54.513471 -10.986488 -77.958092 -1.430851 -10.378401 -3.649264 2.579856 -8.050296 -5.770940 -1.139606 8.405536 2.134127 -0.018107 0.002257 0.002693 -0.567750 -10.302911 -2.671966 1.217491 -5.153586 0.632292 -1.016130 5.931265 -2.760915 -0.181409 -0.131188 -0.000530 
10.264674 4.010119 82.837967 -9.543966 -2.108636 -104.793093 0.481205 -6.848453 4.022645 0.269192 -3.033196 1.732557 0.269192 -3.033196 1.732556 0.210456 -2.274155 1.300451 4.430783 -25.023469 3.236895 8.701675 -10.647998 6.847388 0.888682 -2.198226 0.188251 55.752577 -36.048461 65.325616 -23.957517 -45.490214 49.831974 -46.434413 23.791687 58.063534 -8.841163 -3.897017 -10.694410 -50.107695 -0.719827 -33.300594 -1.733563 -31.202077 -12.584929 54.812104 -9.798472 -78.440201 -1.430952 -10.308917 -3.587387 2.563457 -8.135104 -5.702396 -1.139798 8.405658 2.138840 -0.015062 0.005494 0.002035 -0.566330 -10.281698 -2.661587 1.197362 -5.230249 0.735679 -0.987829 5.978115 -2.747907 -0.164254 -0.124254 -0.001087 
10.238288 4.015999 82.838684 -9.549065 -2.131917 -104.941554 0.494043 -6.881161 3.919226 0.274166 -3.048182 1.687669 0.274166 -3.048182 1.687668 0.214002 -2.285400 1.266822 4.401765 -25.013671 3.153469 8.630782 -10.619153 6.692236 0.818539 -2.196575 0.145244 55.409691 -36.258933 64.977488 -23.654537 -45.559284 47.648656 -46.361111 24.078270 58.368324 -8.985483 -3.851715 -10.662539 -50.605862 -1.028940 -33.163171 -1.517083 -30.819835 -12.270142 55.198379 -8.868549 -78.749718 -1.431732 -10.238049 -3.519744 2.539662 -8.217002 -5.638068 -1.135021 8.406234 2.146423 -0.011717 0.008433 0.000983 -0.574069 -10.260337 -2.623388 1.182073 -5.300441 0.813741 -0.962760 6.018255 -2.699331 -0.144574 -0.114562 0.000385 
10.217374 4.022649 82.840057 -9.551523 -2.153644 -105.104734 0.494414 -6.920773 3.837568 0.273288 -3.065999 1.652461 0.273288 -3.065999 1.652461 0.213216 -2.298782 1.240422 4.389766 -24.982604 3.065943 8.590606 -10.552166 6.535221 0.747265 -2.167791 0.042459 55.353045 -36.430935 64.500359 -23.189566 -45.693429 45.423217 -46.305462 24.217320 58.527215 -9.105804 -3.813279 -10.659031 -51.128330 -1.194519 -33.072698 -1.410893 -30.522367 -11.982204 55.375639 -8.201863 -78.744138 -1.436257 -10.171713 -3.446607 2.513727 -8.288406 -5.561914 -1.131383 8.406746 2.154957 -0.007242 0.008437 0.000602 -0.580390 -10.246009 -2.552563 1.166558 -5.358041 0.879314 -0.944680 6.050231 -2.683831 -0.125573 -0.101338 0.000418 
10.199677 4.029744 82.842026 -9.550377 -2.172950 -105.282974 0.480191 -6.971537 3.784215 0.266270 -3.089303 1.629340 0.266270 -3.089304 1.629338 0.207900 -2.316289 1.223054 4.397448 -24.929304 2.973950 8.585813 -10.445425 6.376384 0.701262 -2.149849 -0.094250 55.513370 -36.465011 63.931424 -22.583156 -45.866609 43.198710 -46.192726 24.226659 58.598788 -9.204402 -3.698004 -10.686151 -51.683785 -1.407435 -32.997808 -1.273657 -30.226780 -11.629778 55.625686 -7.663085 -78.829126 -1.445448 -10.103910 -3.367335 2.487967 -8.354797 -5.476675 -1.127118 8.406499 2.152253 -0.004864 0.007315 -0.001168 -0.592172 -10.237214 -2.463359 1.146991 -5.403258 0.939652 -0.923578 6.076255 -2.662999 -0.107449 -0.087298 0.001597 
10.185762 4.041081 82.843903 -9.546630 -2.196644 -105.477826 0.482033 -7.044321 3.738820 0.267618 -3.122273 1.609139 0.267618 -3.122273 1.609138 0.208894 -2.341021 1.207924 4.388169 -24.860364 2.887891 8.552876 -10.308844 6.225212 0.638334 -2.045926 -0.227254 55.786916 -36.475088 63.228577 -22.046681 -46.017945 41.111694 -46.201158 24.206665 58.637017 -9.338740 -3.528318 -10.725390 -52.263638 -1.727122 -32.938092 -1.019514 -29.880858 -11.277541 55.917707 -7.074786 -79.007831 -1.459594 -10.035027 -3.277424 2.463848 -8.419577 -5.378786 -1.117395 8.403791 2.162444 -0.004653 0.007320 -0.001587 -0.597615 -10.230504 -2.381516 1.117119 -5.446380 1.028357 -0.901199 6.102829 -2.674297 -0.091401 -0.075080 0.001192 
10.171556 4.051459 82.845383 -9.545550 -2.224266 -105.680881 0.460342 -7.090001 3.691208 0.257613 -3.143771 1.588281 0.257613 -3.143771 1.588281 0.201340 -2.357179 1.192237 4.391647 -24.811794 2.815071 8.544588 -10.212390 6.099256 0.668435 -2.000698 -0.314154 56.022919 -36.508478 62.504885 -21.666589 -46.073106 39.151782 -46.176945 24.362798 58.772009 -9.416779 -3.457457 -10.764140 -52.805470 -2.004030 -32.877273 -0.812671 -29.512807 -10.998939 56.070409 -6.491484 -78.990865 -1.466810 -9.973507 -3.195478 2.431141 -8.474576 -5.272872 -1.103766 8.397876 2.180163 -0.005920 0.005324 -0.002215 -0.608512 -10.232954 -2.328753 1.088052 -5.485588 1.151693 -0.878967 6.130042 -2.641139 -0.075786 -0.065047 0.003330 
10.160861 4.063057 82.846451 -9.550903 -2.254216 -105.886674 0.452838 -7.136062 3.627403 0.253758 -3.164467 1.561471 0.253758 -3.164466 1.561469 0.198365 -2.372720 1.172120 4.374025 -24.768491 2.747254 8.499346 -10.124418 5.976829 0.707931 -1.970187 -0.303905 56.169867 -36.485078 61.791956 -21.255918 -46.039013 37.211137 -46.165013 24.589822 58.932662 -9.525138 -3.411944 -10.789329 -53.305289 -2.164662 -32.828160 -0.761858 -29.200268 -10.731312 56.206412 -5.943494 -78.863208 -1.473098 -9.930415 -3.139145 2.390498 -8.510728 -5.154301 -1.083775 8.388450 2.205306 -0.007644 -0.000292 -0.001714 -0.616448 -10.243986 -2.297362 1.059670 -5.522237 1.286273 -0.859918 6.157648 -2.623731 -0.064688 -0.057677 0.002829 
10.151995 4.074885 82.846619 -9.555496 -2.286053 -106.088718 0.444781 -7.174304 3.551302 0.250078 -3.181349 1.529700 0.250078 -3.181349 1.529700 0.195482 -2.385405 1.148284 4.348083 -24.733754 2.679179 8.438576 -10.051669 5.851323 0.766216 -1.922386 -0.249705 56.310115 -36.365361 61.075258 -20.683216 -45.991888 35.265342 -46.153480 24.704664 59.024856 -9.622727 -3.362201 -10.794423 -53.777474 -2.361951 -32.793917 -0.738014 -28.919704 -10.437664 56.418913 -5.508774 -78.733353 -1.481613 -9.892440 -3.118176 2.354009 -8.541893 -5.017245 -1.063740 8.380185 2.248287 -0.010526 -0.006746 -0.002350 -0.630148 -10.257521 -2.269686 1.036881 -5.559116 1.409500 -0.834423 6.190440 -2.579890 -0.057970 -0.053626 0.003013 
